M48
; DRILL file {KiCad 6.0.2+dfsg-1} date mer. 22 mars 2023 09:54:36
; FORMAT={-:-/ absolute / metric / decimal}
; #@! TF.CreationDate,2023-03-22T09:54:36+01:00
; #@! TF.GenerationSoftware,Kicad,Pcbnew,6.0.2+dfsg-1
; #@! TF.FileFunction,Plated,1,2,PTH
FMAT,2
METRIC
; #@! TA.AperFunction,Plated,PTH,ComponentDrill
T1C0.900
; #@! TA.AperFunction,Plated,PTH,ComponentDrill
T2C1.100
%
G90
G05
T2
X155.57Y-44.45
X155.57Y-51.05
X155.57Y-56.13
X155.68Y-72.458
X155.68Y-79.058
X155.68Y-84.138
X155.68Y-95.318
X155.68Y-101.918
X155.68Y-106.998
X170.18Y-44.45
X170.18Y-59.69
X170.29Y-72.458
X170.29Y-87.698
X170.29Y-95.318
X170.29Y-110.558
X190.5Y-44.196
X190.5Y-59.436
X190.5Y-72.136
X190.5Y-110.744
T1
G00X132.635Y-50.18
M15
G01X134.235Y-50.18
M16
G05
G00X132.635Y-61.58
M15
G01X134.235Y-61.58
M16
G05
G00X132.804Y-99.92
M15
G01X134.404Y-99.92
M16
G05
G00X132.804Y-111.32
M15
G01X134.404Y-111.32
M16
G05
T0
M30
