%TF.GenerationSoftware,KiCad,Pcbnew,6.0.2+dfsg-1*%
%TF.CreationDate,2023-03-22T09:54:04+01:00*%
%TF.ProjectId,pcbfinal,70636266-696e-4616-9c2e-6b696361645f,rev?*%
%TF.SameCoordinates,Original*%
%TF.FileFunction,Profile,NP*%
%FSLAX46Y46*%
G04 Gerber Fmt 4.6, Leading zero omitted, Abs format (unit mm)*
G04 Created by KiCad (PCBNEW 6.0.2+dfsg-1) date 2023-03-22 09:54:04*
%MOMM*%
%LPD*%
G01*
G04 APERTURE LIST*
%TA.AperFunction,Profile*%
%ADD10C,0.100000*%
%TD*%
G04 APERTURE END LIST*
D10*
X171339521Y-42672000D02*
X194199521Y-42672000D01*
X194199521Y-42672000D02*
X194199521Y-45720000D01*
X194199521Y-45720000D02*
X171339521Y-45720000D01*
X171339521Y-45720000D02*
X171339521Y-57912000D01*
X171339521Y-57912000D02*
X194199521Y-57912000D01*
X194199521Y-57912000D02*
X194199521Y-62484000D01*
X194199521Y-62484000D02*
X138319521Y-62484000D01*
X138319521Y-62484000D02*
X138319521Y-67310000D01*
X138319521Y-67310000D02*
X171339521Y-67310000D01*
X171339521Y-67310000D02*
X171339521Y-69850000D01*
X171339521Y-69850000D02*
X195469521Y-69850000D01*
X195469521Y-69850000D02*
X195469521Y-74930000D01*
X195469521Y-74930000D02*
X171339521Y-74930000D01*
X171339521Y-74930000D02*
X171339521Y-86360000D01*
X171339521Y-86360000D02*
X175149521Y-86360000D01*
X175149521Y-86360000D02*
X175149521Y-96520000D01*
X175149521Y-96520000D02*
X171339521Y-96520000D01*
X171339521Y-96520000D02*
X171339521Y-109220000D01*
X171339521Y-109220000D02*
X194199521Y-109220000D01*
X194199521Y-109220000D02*
X194199521Y-112522000D01*
X194199521Y-112522000D02*
X129429521Y-112522000D01*
X129429521Y-112522000D02*
X129429521Y-67310000D01*
X129429521Y-67310000D02*
X135779521Y-67310000D01*
X135779521Y-67310000D02*
X135779521Y-62484000D01*
X135779521Y-62484000D02*
X129429521Y-62484000D01*
X129429521Y-62484000D02*
X129429521Y-39370000D01*
X129429521Y-39370000D02*
X171339521Y-39370000D01*
X171339521Y-39370000D02*
X171339521Y-42672000D01*
M02*
