%TF.GenerationSoftware,KiCad,Pcbnew,6.0.2+dfsg-1*%
%TF.CreationDate,2023-03-22T09:54:04+01:00*%
%TF.ProjectId,pcbfinal,70636266-696e-4616-9c2e-6b696361645f,rev?*%
%TF.SameCoordinates,Original*%
%TF.FileFunction,Copper,L1,Top*%
%TF.FilePolarity,Positive*%
%FSLAX46Y46*%
G04 Gerber Fmt 4.6, Leading zero omitted, Abs format (unit mm)*
G04 Created by KiCad (PCBNEW 6.0.2+dfsg-1) date 2023-03-22 09:54:04*
%MOMM*%
%LPD*%
G01*
G04 APERTURE LIST*
%ADD10C,0.300000*%
%TA.AperFunction,NonConductor*%
%ADD11C,0.300000*%
%TD*%
%TA.AperFunction,NonConductor*%
%ADD12C,0.200000*%
%TD*%
%TA.AperFunction,ComponentPad*%
%ADD13C,2.000000*%
%TD*%
%TA.AperFunction,SMDPad,CuDef*%
%ADD14R,2.500000X1.100000*%
%TD*%
%TA.AperFunction,ComponentPad*%
%ADD15O,3.500000X1.900000*%
%TD*%
%TA.AperFunction,Conductor*%
%ADD16C,1.000000*%
%TD*%
G04 APERTURE END LIST*
D10*
D11*
X112186571Y-83200000D02*
X112186571Y-82200000D01*
X113686571Y-82842857D01*
X112186571Y-81771428D02*
X112186571Y-80842857D01*
X112758000Y-81342857D01*
X112758000Y-81128571D01*
X112829428Y-80985714D01*
X112900857Y-80914285D01*
X113043714Y-80842857D01*
X113400857Y-80842857D01*
X113543714Y-80914285D01*
X113615142Y-80985714D01*
X113686571Y-81128571D01*
X113686571Y-81557142D01*
X113615142Y-81700000D01*
X113543714Y-81771428D01*
X113615142Y-80128571D02*
X113686571Y-80128571D01*
X113829428Y-80200000D01*
X113900857Y-80271428D01*
X112186571Y-78842857D02*
X112186571Y-79128571D01*
X112258000Y-79271428D01*
X112329428Y-79342857D01*
X112543714Y-79485714D01*
X112829428Y-79557142D01*
X113400857Y-79557142D01*
X113543714Y-79485714D01*
X113615142Y-79414285D01*
X113686571Y-79271428D01*
X113686571Y-78985714D01*
X113615142Y-78842857D01*
X113543714Y-78771428D01*
X113400857Y-78700000D01*
X113043714Y-78700000D01*
X112900857Y-78771428D01*
X112829428Y-78842857D01*
X112758000Y-78985714D01*
X112758000Y-79271428D01*
X112829428Y-79414285D01*
X112900857Y-79485714D01*
X113043714Y-79557142D01*
X112186571Y-77414285D02*
X112186571Y-77700000D01*
X112258000Y-77842857D01*
X112329428Y-77914285D01*
X112543714Y-78057142D01*
X112829428Y-78128571D01*
X113400857Y-78128571D01*
X113543714Y-78057142D01*
X113615142Y-77985714D01*
X113686571Y-77842857D01*
X113686571Y-77557142D01*
X113615142Y-77414285D01*
X113543714Y-77342857D01*
X113400857Y-77271428D01*
X113043714Y-77271428D01*
X112900857Y-77342857D01*
X112829428Y-77414285D01*
X112758000Y-77557142D01*
X112758000Y-77842857D01*
X112829428Y-77985714D01*
X112900857Y-78057142D01*
X113043714Y-78128571D01*
X112186571Y-76342857D02*
X112186571Y-76200000D01*
X112258000Y-76057142D01*
X112329428Y-75985714D01*
X112472285Y-75914285D01*
X112758000Y-75842857D01*
X113115142Y-75842857D01*
X113400857Y-75914285D01*
X113543714Y-75985714D01*
X113615142Y-76057142D01*
X113686571Y-76200000D01*
X113686571Y-76342857D01*
X113615142Y-76485714D01*
X113543714Y-76557142D01*
X113400857Y-76628571D01*
X113115142Y-76700000D01*
X112758000Y-76700000D01*
X112472285Y-76628571D01*
X112329428Y-76557142D01*
X112258000Y-76485714D01*
X112186571Y-76342857D01*
X112186571Y-74914285D02*
X112186571Y-74771428D01*
X112258000Y-74628571D01*
X112329428Y-74557142D01*
X112472285Y-74485714D01*
X112758000Y-74414285D01*
X113115142Y-74414285D01*
X113400857Y-74485714D01*
X113543714Y-74557142D01*
X113615142Y-74628571D01*
X113686571Y-74771428D01*
X113686571Y-74914285D01*
X113615142Y-75057142D01*
X113543714Y-75128571D01*
X113400857Y-75200000D01*
X113115142Y-75271428D01*
X112758000Y-75271428D01*
X112472285Y-75200000D01*
X112329428Y-75128571D01*
X112258000Y-75057142D01*
X112186571Y-74914285D01*
X113686571Y-72628571D02*
X112686571Y-72628571D01*
X112829428Y-72628571D02*
X112758000Y-72557142D01*
X112686571Y-72414285D01*
X112686571Y-72200000D01*
X112758000Y-72057142D01*
X112900857Y-71985714D01*
X113686571Y-71985714D01*
X112900857Y-71985714D02*
X112758000Y-71914285D01*
X112686571Y-71771428D01*
X112686571Y-71557142D01*
X112758000Y-71414285D01*
X112900857Y-71342857D01*
X113686571Y-71342857D01*
X113686571Y-70628571D02*
X112686571Y-70628571D01*
X112829428Y-70628571D02*
X112758000Y-70557142D01*
X112686571Y-70414285D01*
X112686571Y-70200000D01*
X112758000Y-70057142D01*
X112900857Y-69985714D01*
X113686571Y-69985714D01*
X112900857Y-69985714D02*
X112758000Y-69914285D01*
X112686571Y-69771428D01*
X112686571Y-69557142D01*
X112758000Y-69414285D01*
X112900857Y-69342857D01*
X113686571Y-69342857D01*
D12*
X128929521Y-113030000D02*
X114221580Y-113030000D01*
X128929521Y-39370000D02*
X114221580Y-39370000D01*
X114808000Y-113030000D02*
X114808000Y-39370000D01*
X114808000Y-113030000D02*
X114808000Y-39370000D01*
X114808000Y-113030000D02*
X115394421Y-111903496D01*
X114808000Y-113030000D02*
X114221579Y-111903496D01*
X114808000Y-39370000D02*
X114221579Y-40496504D01*
X114808000Y-39370000D02*
X115394421Y-40496504D01*
D10*
D11*
X155600235Y-135252568D02*
X155314521Y-135252568D01*
X155171663Y-135323997D01*
X155100235Y-135395425D01*
X154957378Y-135609711D01*
X154885949Y-135895425D01*
X154885949Y-136466854D01*
X154957378Y-136609711D01*
X155028806Y-136681139D01*
X155171663Y-136752568D01*
X155457378Y-136752568D01*
X155600235Y-136681139D01*
X155671663Y-136609711D01*
X155743092Y-136466854D01*
X155743092Y-136109711D01*
X155671663Y-135966854D01*
X155600235Y-135895425D01*
X155457378Y-135823997D01*
X155171663Y-135823997D01*
X155028806Y-135895425D01*
X154957378Y-135966854D01*
X154885949Y-136109711D01*
X157028806Y-135752568D02*
X157028806Y-136752568D01*
X156671663Y-135181139D02*
X156314521Y-136252568D01*
X157243092Y-136252568D01*
X157885949Y-136681139D02*
X157885949Y-136752568D01*
X157814521Y-136895425D01*
X157743092Y-136966854D01*
X158385949Y-135252568D02*
X159385949Y-135252568D01*
X158743092Y-136752568D01*
X159814521Y-135252568D02*
X160814521Y-135252568D01*
X160171663Y-136752568D01*
X161671663Y-135252568D02*
X161814521Y-135252568D01*
X161957378Y-135323997D01*
X162028806Y-135395425D01*
X162100235Y-135538282D01*
X162171663Y-135823997D01*
X162171663Y-136181139D01*
X162100235Y-136466854D01*
X162028806Y-136609711D01*
X161957378Y-136681139D01*
X161814521Y-136752568D01*
X161671663Y-136752568D01*
X161528806Y-136681139D01*
X161457378Y-136609711D01*
X161385949Y-136466854D01*
X161314521Y-136181139D01*
X161314521Y-135823997D01*
X161385949Y-135538282D01*
X161457378Y-135395425D01*
X161528806Y-135323997D01*
X161671663Y-135252568D01*
X163100235Y-135252568D02*
X163243092Y-135252568D01*
X163385949Y-135323997D01*
X163457378Y-135395425D01*
X163528806Y-135538282D01*
X163600235Y-135823997D01*
X163600235Y-136181139D01*
X163528806Y-136466854D01*
X163457378Y-136609711D01*
X163385949Y-136681139D01*
X163243092Y-136752568D01*
X163100235Y-136752568D01*
X162957378Y-136681139D01*
X162885949Y-136609711D01*
X162814521Y-136466854D01*
X162743092Y-136181139D01*
X162743092Y-135823997D01*
X162814521Y-135538282D01*
X162885949Y-135395425D01*
X162957378Y-135323997D01*
X163100235Y-135252568D01*
X165385949Y-136752568D02*
X165385949Y-135752568D01*
X165385949Y-135895425D02*
X165457378Y-135823997D01*
X165600235Y-135752568D01*
X165814521Y-135752568D01*
X165957378Y-135823997D01*
X166028806Y-135966854D01*
X166028806Y-136752568D01*
X166028806Y-135966854D02*
X166100235Y-135823997D01*
X166243092Y-135752568D01*
X166457378Y-135752568D01*
X166600235Y-135823997D01*
X166671663Y-135966854D01*
X166671663Y-136752568D01*
X167385949Y-136752568D02*
X167385949Y-135752568D01*
X167385949Y-135895425D02*
X167457378Y-135823997D01*
X167600235Y-135752568D01*
X167814521Y-135752568D01*
X167957378Y-135823997D01*
X168028806Y-135966854D01*
X168028806Y-136752568D01*
X168028806Y-135966854D02*
X168100235Y-135823997D01*
X168243092Y-135752568D01*
X168457378Y-135752568D01*
X168600235Y-135823997D01*
X168671663Y-135966854D01*
X168671663Y-136752568D01*
D12*
X129429521Y-113530000D02*
X129429521Y-138460417D01*
X194199521Y-113530000D02*
X194199521Y-138460417D01*
X129429521Y-137873997D02*
X194199521Y-137873997D01*
X129429521Y-137873997D02*
X194199521Y-137873997D01*
X129429521Y-137873997D02*
X130556025Y-138460418D01*
X129429521Y-137873997D02*
X130556025Y-137287576D01*
X194199521Y-137873997D02*
X193073017Y-137287576D01*
X194199521Y-137873997D02*
X193073017Y-138460418D01*
D10*
D11*
X173411428Y-116901428D02*
X173482857Y-116830000D01*
X173625714Y-116758571D01*
X173982857Y-116758571D01*
X174125714Y-116830000D01*
X174197142Y-116901428D01*
X174268571Y-117044285D01*
X174268571Y-117187142D01*
X174197142Y-117401428D01*
X173340000Y-118258571D01*
X174268571Y-118258571D01*
X175197142Y-116758571D02*
X175340000Y-116758571D01*
X175482857Y-116830000D01*
X175554285Y-116901428D01*
X175625714Y-117044285D01*
X175697142Y-117330000D01*
X175697142Y-117687142D01*
X175625714Y-117972857D01*
X175554285Y-118115714D01*
X175482857Y-118187142D01*
X175340000Y-118258571D01*
X175197142Y-118258571D01*
X175054285Y-118187142D01*
X174982857Y-118115714D01*
X174911428Y-117972857D01*
X174840000Y-117687142D01*
X174840000Y-117330000D01*
X174911428Y-117044285D01*
X174982857Y-116901428D01*
X175054285Y-116830000D01*
X175197142Y-116758571D01*
X176411428Y-118187142D02*
X176411428Y-118258571D01*
X176340000Y-118401428D01*
X176268571Y-118472857D01*
X176911428Y-116758571D02*
X177840000Y-116758571D01*
X177340000Y-117330000D01*
X177554285Y-117330000D01*
X177697142Y-117401428D01*
X177768571Y-117472857D01*
X177840000Y-117615714D01*
X177840000Y-117972857D01*
X177768571Y-118115714D01*
X177697142Y-118187142D01*
X177554285Y-118258571D01*
X177125714Y-118258571D01*
X176982857Y-118187142D01*
X176911428Y-118115714D01*
X178411428Y-116901428D02*
X178482857Y-116830000D01*
X178625714Y-116758571D01*
X178982857Y-116758571D01*
X179125714Y-116830000D01*
X179197142Y-116901428D01*
X179268571Y-117044285D01*
X179268571Y-117187142D01*
X179197142Y-117401428D01*
X178340000Y-118258571D01*
X179268571Y-118258571D01*
X180197142Y-116758571D02*
X180340000Y-116758571D01*
X180482857Y-116830000D01*
X180554285Y-116901428D01*
X180625714Y-117044285D01*
X180697142Y-117330000D01*
X180697142Y-117687142D01*
X180625714Y-117972857D01*
X180554285Y-118115714D01*
X180482857Y-118187142D01*
X180340000Y-118258571D01*
X180197142Y-118258571D01*
X180054285Y-118187142D01*
X179982857Y-118115714D01*
X179911428Y-117972857D01*
X179840000Y-117687142D01*
X179840000Y-117330000D01*
X179911428Y-117044285D01*
X179982857Y-116901428D01*
X180054285Y-116830000D01*
X180197142Y-116758571D01*
X181625714Y-116758571D02*
X181768571Y-116758571D01*
X181911428Y-116830000D01*
X181982857Y-116901428D01*
X182054285Y-117044285D01*
X182125714Y-117330000D01*
X182125714Y-117687142D01*
X182054285Y-117972857D01*
X181982857Y-118115714D01*
X181911428Y-118187142D01*
X181768571Y-118258571D01*
X181625714Y-118258571D01*
X181482857Y-118187142D01*
X181411428Y-118115714D01*
X181340000Y-117972857D01*
X181268571Y-117687142D01*
X181268571Y-117330000D01*
X181340000Y-117044285D01*
X181411428Y-116901428D01*
X181482857Y-116830000D01*
X181625714Y-116758571D01*
X183911428Y-118258571D02*
X183911428Y-117258571D01*
X183911428Y-117401428D02*
X183982857Y-117330000D01*
X184125714Y-117258571D01*
X184340000Y-117258571D01*
X184482857Y-117330000D01*
X184554285Y-117472857D01*
X184554285Y-118258571D01*
X184554285Y-117472857D02*
X184625714Y-117330000D01*
X184768571Y-117258571D01*
X184982857Y-117258571D01*
X185125714Y-117330000D01*
X185197142Y-117472857D01*
X185197142Y-118258571D01*
X185911428Y-118258571D02*
X185911428Y-117258571D01*
X185911428Y-117401428D02*
X185982857Y-117330000D01*
X186125714Y-117258571D01*
X186340000Y-117258571D01*
X186482857Y-117330000D01*
X186554285Y-117472857D01*
X186554285Y-118258571D01*
X186554285Y-117472857D02*
X186625714Y-117330000D01*
X186768571Y-117258571D01*
X186982857Y-117258571D01*
X187125714Y-117330000D01*
X187197142Y-117472857D01*
X187197142Y-118258571D01*
D12*
X170180000Y-91940000D02*
X170180000Y-119966420D01*
X190500000Y-91940000D02*
X190500000Y-119966420D01*
X170180000Y-119380000D02*
X190500000Y-119380000D01*
X170180000Y-119380000D02*
X190500000Y-119380000D01*
X170180000Y-119380000D02*
X171306504Y-119966421D01*
X170180000Y-119380000D02*
X171306504Y-118793579D01*
X190500000Y-119380000D02*
X189373496Y-118793579D01*
X190500000Y-119380000D02*
X189373496Y-119966421D01*
D13*
%TO.P,,4,HV_RTN*%
%TO.N,unconnected-(U3-Pad4)*%
X190500000Y-44196000D03*
%TD*%
%TO.P,,3,HV_OUT*%
%TO.N,unconnected-(U3-Pad3)*%
X190500000Y-59436000D03*
%TD*%
%TO.P,,4,HV_RTN*%
%TO.N,unconnected-(U1-Pad4)*%
X190500000Y-72136000D03*
%TD*%
%TO.P,,3,HV_OUT*%
%TO.N,unconnected-(U2-Pad3)*%
X190500000Y-110744000D03*
%TD*%
%TO.P,U3,1,-*%
%TO.N,Net-(J2-Pad4)*%
X155570000Y-56130000D03*
%TO.P,U3,2,+*%
%TO.N,Net-(J2-Pad1)*%
X155570000Y-51050000D03*
%TO.P,U3,3,HV_OUT*%
%TO.N,unconnected-(U3-Pad3)*%
X170180000Y-59690000D03*
%TO.P,U3,4,HV_RTN*%
%TO.N,unconnected-(U3-Pad4)*%
X170180000Y-44450000D03*
%TO.P,U3,5,CTRL*%
%TO.N,Net-(J2-Pad1)*%
X155570000Y-44450000D03*
%TD*%
D14*
%TO.P,J1,1,VBUS*%
%TO.N,Net-(J1-Pad1)*%
X130854000Y-102120479D03*
%TO.P,J1,2,D-*%
%TO.N,unconnected-(J1-Pad2)*%
X130854000Y-104620479D03*
%TO.P,J1,3,D+*%
%TO.N,unconnected-(J1-Pad3)*%
X130854000Y-106620479D03*
%TO.P,J1,4,GND*%
%TO.N,Net-(J1-Pad4)*%
X130854000Y-109120479D03*
D15*
%TO.P,J1,5,Shield*%
%TO.N,unconnected-(J1-Pad5)*%
X133604000Y-111320479D03*
X133604000Y-99920479D03*
%TD*%
D14*
%TO.P,J2,1,VBUS*%
%TO.N,Net-(J2-Pad1)*%
X130685000Y-52380000D03*
%TO.P,J2,2,D-*%
%TO.N,unconnected-(J2-Pad2)*%
X130685000Y-54880000D03*
%TO.P,J2,3,D+*%
%TO.N,unconnected-(J2-Pad3)*%
X130685000Y-56880000D03*
%TO.P,J2,4,GND*%
%TO.N,Net-(J2-Pad4)*%
X130685000Y-59380000D03*
D15*
%TO.P,J2,5,Shield*%
%TO.N,unconnected-(J2-Pad5)*%
X133435000Y-50180000D03*
X133435000Y-61580000D03*
%TD*%
D13*
%TO.P,U2,1,-*%
%TO.N,Net-(J1-Pad4)*%
X155680479Y-106998479D03*
%TO.P,U2,2,+*%
%TO.N,Net-(J1-Pad1)*%
X155680479Y-101918479D03*
%TO.P,U2,3,HV_OUT*%
%TO.N,unconnected-(U2-Pad3)*%
X170290479Y-110558479D03*
%TO.P,U2,4,HV_RTN*%
%TO.N,Net-(U1-Pad3)*%
X170290479Y-95318479D03*
%TO.P,U2,5,CTRL*%
%TO.N,Net-(J1-Pad1)*%
X155680479Y-95318479D03*
%TD*%
%TO.P,U1,1,-*%
%TO.N,Net-(J1-Pad4)*%
X155680479Y-84138479D03*
%TO.P,U1,2,+*%
%TO.N,Net-(J1-Pad1)*%
X155680479Y-79058479D03*
%TO.P,U1,3,HV_OUT*%
%TO.N,Net-(U1-Pad3)*%
X170290479Y-87698479D03*
%TO.P,U1,4,HV_RTN*%
%TO.N,unconnected-(U1-Pad4)*%
X170290479Y-72458479D03*
%TO.P,U1,5,CTRL*%
%TO.N,Net-(J1-Pad1)*%
X155680479Y-72458479D03*
%TD*%
D16*
%TO.N,unconnected-(U2-Pad3)*%
X190431521Y-110558479D02*
X190500000Y-110490000D01*
X170290479Y-110558479D02*
X190431521Y-110558479D01*
%TO.N,Net-(J1-Pad4)*%
X130854000Y-109120479D02*
X130953521Y-109220000D01*
X130953521Y-109220000D02*
X153458958Y-109220000D01*
X153458958Y-109220000D02*
X155680479Y-106998479D01*
%TO.N,Net-(J1-Pad1)*%
X130854000Y-102120479D02*
X131056000Y-101918479D01*
X131056000Y-101918479D02*
X155680479Y-101918479D01*
%TO.N,unconnected-(U3-Pad4)*%
X170180000Y-44450000D02*
X190500000Y-44450000D01*
%TO.N,unconnected-(U3-Pad3)*%
X170180000Y-59690000D02*
X190500000Y-59690000D01*
%TO.N,unconnected-(U1-Pad4)*%
X170290479Y-72458479D02*
X190431521Y-72458479D01*
X190431521Y-72458479D02*
X190500000Y-72390000D01*
%TO.N,Net-(J1-Pad4)*%
X155680479Y-106998479D02*
X159114479Y-103564479D01*
X159114479Y-103564479D02*
X159114479Y-87572479D01*
X159114479Y-87572479D02*
X155680479Y-84138479D01*
%TO.N,Net-(U1-Pad3)*%
X170290479Y-95318479D02*
X170290479Y-87698479D01*
%TO.N,Net-(J1-Pad1)*%
X155680479Y-95318479D02*
X152510479Y-92148479D01*
X152510479Y-92148479D02*
X152510479Y-82228479D01*
X152510479Y-82228479D02*
X155680479Y-79058479D01*
X155680479Y-79058479D02*
X155680479Y-72458479D01*
X155680479Y-101918479D02*
X155680479Y-95318479D01*
%TO.N,Net-(J2-Pad4)*%
X130685000Y-59380000D02*
X130784521Y-59479521D01*
X130784521Y-59479521D02*
X152220479Y-59479521D01*
X152220479Y-59479521D02*
X155570000Y-56130000D01*
%TO.N,Net-(J2-Pad1)*%
X155570000Y-51050000D02*
X155570000Y-44450000D01*
X154339521Y-52280479D02*
X155570000Y-51050000D01*
X130784521Y-52280479D02*
X154339521Y-52280479D01*
X130685000Y-52380000D02*
X130784521Y-52280479D01*
%TD*%
M02*
